inDegrees=no
num_controls=7
num_derivatives=13
num_iterations=110
num_multipliers=7
num_parameters=0
num_slacks=7
num_states=26
objective=0.431120
objective_accelerations=0.049664
objective_balance=0.006834
objective_effort=0.031111
objective_height=0.342338
objective_ligament=0.001172
solver_duration=1429.128797
status=Solve_Succeeded
success=true
DataType=double
version=3
OpenSimVersion=4.5
endheader
time	/jointset/ground_pelvis/pelvis_tilt/value	/jointset/ground_pelvis/pelvis_tx/value	/jointset/ground_pelvis/pelvis_ty/value	/jointset/hip_l/hip_flexion_l/value	/jointset/hip_l/hip_adduction_l/value	/jointset/hip_l/hip_rotation_l/value	/jointset/back/lumbar_extension/value	/jointset/patellofemoral_l/patellar_flexion_l/value	/jointset/knee_l/knee_flexion_l/value	/jointset/knee_l/knee_adduction_l/value	/jointset/knee_l/knee_rotation_l/value	/jointset/ankle_l/ankle_angle_l/value	/jointset/subtalar_l/subtalar_angle_l/value	/jointset/ground_pelvis/pelvis_tilt/speed	/jointset/ground_pelvis/pelvis_tx/speed	/jointset/ground_pelvis/pelvis_ty/speed	/jointset/hip_l/hip_flexion_l/speed	/jointset/hip_l/hip_adduction_l/speed	/jointset/hip_l/hip_rotation_l/speed	/jointset/back/lumbar_extension/speed	/jointset/patellofemoral_l/patellar_flexion_l/speed	/jointset/knee_l/knee_flexion_l/speed	/jointset/knee_l/knee_adduction_l/speed	/jointset/knee_l/knee_rotation_l/speed	/jointset/ankle_l/ankle_angle_l/speed	/jointset/subtalar_l/subtalar_angle_l/speed	/forceset/tau_hip_flexion_l	/forceset/tau_hip_adduction_l	/forceset/tau_hip_rotation_l	/forceset/tau_knee_flexion_l	/forceset/tau_ankle_angle_l	/forceset/tau_subtalar_angle_l	/forceset/tau_lumbar_extension	lambda_cid13_p0	lambda_cid13_p1	lambda_cid13_p2	lambda_cid13_p3	lambda_cid13_p4	lambda_cid13_p5	lambda_cid14_p0	/jointset/ground_pelvis/pelvis_tilt/accel	/jointset/ground_pelvis/pelvis_tx/accel	/jointset/ground_pelvis/pelvis_ty/accel	/jointset/hip_l/hip_flexion_l/accel	/jointset/hip_l/hip_adduction_l/accel	/jointset/hip_l/hip_rotation_l/accel	/jointset/back/lumbar_extension/accel	/jointset/patellofemoral_l/patellar_flexion_l/accel	/jointset/knee_l/knee_flexion_l/accel	/jointset/knee_l/knee_adduction_l/accel	/jointset/knee_l/knee_rotation_l/accel	/jointset/ankle_l/ankle_angle_l/accel	/jointset/subtalar_l/subtalar_angle_l/accel	gamma_cid13_p0	gamma_cid13_p1	gamma_cid13_p2	gamma_cid13_p3	gamma_cid13_p4	gamma_cid13_p5	gamma_cid14_p0
0.5	-0.3298662019348226	-0.02995601710823889	0.7680533340012766	1.157399982110745	-0.3051597978799883	0.008023334654146631	-0.3231486594806191	0.808309801591826	0.8083098015917535	-0.1736556155794255	0.1670018517496405	0.1618534680544423	-0.0199392417795457	-0.4254604962295252	-0.1650722790951478	-0.5031812322087271	2.104352249583495	0.009214846165599115	0.6956271659803858	-0.6329809663398597	2.096677563781279	2.096677563780912	-0.005935479368951899	0.04498332861771934	0.5398685633558788	0.09865205206541164	-0.185096129189771	0.01764989837965726	-0.0264464084424957	-0.2591552978967017	0.1043164522708907	0.03897932235088026	0.1853065383439445	-4.636747941056913	-18.90068194987726	5.790662350171876	-2.876774922829242	-605.3595921877535	-60.7161854404869	-21.01616749393769	0.4840272430394314	0.573374138528199	-0.4189768913890498	-1.339794561084838	0.6829599866166954	-0.3669578404866368	1.668464382733822	-1.359955193398636	-1.359955193398694	0.0611386122097643	-0.09305625658615117	-0.5196741155740676	0.7062429167314106	-4.279680110342684e-07	-4.531655734155969e-07	2.641471096407233e-06	2.912289190525609e-07	-5.182744825365271e-07	-2.970975311057609e-07	-4.129078364373213e-07
0.51	-0.3340957089571329	-0.03157785250054572	0.7630016887974918	1.178372862963563	-0.3050349994451956	0.0149624487989511	-0.3293945786218963	0.8292050081664804	0.8292050081663719	-0.1737155320801639	0.1674466109120116	0.1672248340477553	-0.01891915363890112	-0.4203896195474351	-0.1592788037663457	-0.5070361358888589	2.08993385360481	0.01571934911399582	0.6921031289475198	-0.6161180578149108	2.082070007371301	2.082070007370942	-0.006038004714431016	0.04396589677269545	0.5343203541115552	0.1053429345935179	-0.1913894320640264	0.01809416926482425	-0.02653410638586984	-0.2621025523779512	0.1028862798361585	0.03901705911621745	0.1906179704966001	-5.337627359627101	-18.69594035340153	5.645610075319132	-2.655117182060994	-609.8609220489506	-60.36153913163711	-19.7389537473694	0.5262771030459774	0.5847906599908317	-0.3520953951797035	-1.536418814315115	0.6300280307510157	-0.3593638809484704	1.707924702468624	-1.555137544205287	-1.555137544204273	-0.04444763728349277	-0.1069854667066638	-0.5850193222257357	0.6468781026141853	-3.943875244365474e-07	-3.551744875881792e-07	2.514909270086144e-06	2.833732422101939e-07	-4.783694786469687e-07	-2.045519044037975e-07	-3.867120517762164e-07
0.52	-0.3382729753681718	-0.0331412618535776	0.7579148248991345	1.199192848516983	-0.3048459894645589	0.02186347512417434	-0.3354693245549052	0.8499453428411535	0.8499453428410092	-0.1737761737402285	0.1678810159922833	0.1725381929499522	-0.01783288323662269	-0.415012373975258	-0.1533870712401583	-0.5102249711231686	2.073773189703936	0.02205715533438693	0.688009602064178	-0.5987463246862339	2.065703183785002	2.065703183784649	-0.006080511234180155	0.04291251219782532	0.5282671451326627	0.1118885043921823	-0.1976827349382821	0.01853844014999071	-0.0266218043292423	-0.2650498068592009	0.101456107401426	0.03905479588155398	0.1959294026492555	-6.043360972139339	-18.49185692009742	5.502387255738173	-2.451180204160849	-614.4628027486161	-60.09026351602617	-18.46068408658302	0.5453010210568414	0.5930255780052622	-0.2857632022245989	-1.688248145522547	0.6496206410155765	-0.4808558105817886	1.770229303479415	-1.711808628663014	-1.711808628663043	0.07314237735576015	-0.100246802555404	-0.6206740624878253	0.677180370843031	-3.632033790104038e-07	-2.446742450841833e-07	2.400281263436047e-06	2.791779211997569e-07	-4.428722076120295e-07	-1.123575331973863e-07	-3.610030575138941e-07
0.53	-0.3423950810650076	-0.03464532310937406	0.752799427712573	1.219842821086709	-0.3045943259949022	0.02872086697747095	-0.3413679097309132	0.8705134538681293	0.8705134538678599	-0.1738367295307001	0.1683045782847626	0.1777886617002119	-0.01668175382460811	-0.4093642990963772	-0.1474141059372521	-0.5127393198778831	2.055943204773123	0.0282419691115038	0.6833883726911856	-0.5809031090283084	2.047637440005697	2.047637440005506	-0.00603173233648025	0.04179392695078123	0.5217509974163144	0.1183054641457764	-0.2037409885484409	0.01876647505579796	-0.02665728849160385	-0.2681964673498713	0.10030340019064	0.03893245590091037	0.201032193106053	-6.663436491713044	-18.22627028316008	5.341384470183529	-2.269671674375213	-619.0335902366029	-59.75773309102956	-17.18437088726318	0.5812035797744245	0.6011484985899023	-0.2170836108397149	-1.872129685076027	0.5975461883021502	-0.4651186744922112	1.801507920002455	-1.896124993363708	-1.896124993339352	-0.02937521415837975	-0.1190309625634005	-0.6784029100479018	0.6189214398198017	-3.326738210302083e-07	-1.440963611866302e-07	2.283791955327694e-06	2.746155231436088e-07	-4.094198317977402e-07	-2.737608207972284e-08	-3.356713422201381e-07
0.54	-0.3464593774413604	-0.03608931141371015	0.7476623244587154	1.240306142603484	-0.3042818874990257	0.03552957410227053	-0.3470860347057312	0.890892473909152	0.8908924739087596	-0.1738968217042219	0.1687166814094145	0.1829717054165402	-0.01546746128261714	-0.4034505098786673	-0.1413724809480812	-0.5145661845823899	2.036442979113692	0.0342121605783172	0.6782726563648237	-0.5626542844482495	2.027884986594416	2.027884986594387	-0.005987787844199863	0.04062067863235765	0.514782138346383	0.1245211303874585	-0.2097992421586002	0.01899450996160449	-0.02669277265396355	-0.2713431278405422	0.09915069297985366	0.0388101159202659	0.2061349835628501	-7.28889127265023	-17.96056993767596	5.181311303792682	-2.103176455974237	-623.7092365221931	-59.50036918094553	-15.91426617030748	0.598443888822689	0.6067575152582122	-0.148266392183022	-2.022296291246291	0.606696178954882	-0.5797532012556603	1.851351087906123	-2.049150555058186	-2.049150555058186	0.07217549627185685	-0.1111794168313034	-0.7112163332044577	0.6369216684606164	-3.028684874582959e-07	-5.449640596003516e-08	2.165243334967653e-06	2.69646997292206e-07	-3.78229893248851e-07	4.96251170248579e-08	-3.107570419554343e-07
0.55	-0.3504633231026495	-0.0374726323177322	0.7425103959871776	1.260566437042131	-0.3039106676023424	0.0422846099987156	-0.3526197977321991	0.9110658005702836	0.9110658005703606	-0.1739561096845152	0.1691167394021036	0.1880829281037313	-0.01419184876320293	-0.3973001565246539	-0.135288759742701	-0.5157034425628182	2.015356458419441	0.03999524681569781	0.6726515873171677	-0.5440504508374111	2.006515770269568	2.006515770269465	-0.005863750026013544	0.03938786239368808	0.5073928614822086	0.1305648367745766	-0.21566188528612	0.01908134155318817	-0.02665502974544159	-0.2744637836915209	0.09791848622047292	0.03858579236971353	0.2110262768954965	-7.936764874660178	-17.64024889351738	5.005213625015273	-1.846891293826681	-628.2461588565094	-59.18527682471726	-14.65488817001832	0.6290808643348047	0.6096738276102258	-0.0791176700603126	-2.190777221633065	0.5583191559632489	-0.565976154271571	1.872079998858466	-2.220434042064523	-2.220434042075529	-0.01652206960137391	-0.130209899559154	-0.7631859107153746	0.5823683700868645	-2.720643852763821e-07	2.890659079588012e-08	2.036024041058438e-06	2.617097091051613e-07	-3.457172244665737e-07	1.19411700437862e-07	-2.849158037809238e-07
0.5600000000000001	-0.3544046152692696	-0.03879501712881397	0.737350562502018	1.280608076821211	-0.3034827759813184	0.04898089672513364	-0.3579660863223216	0.9310175096939936	0.931017509694539	-0.1740139652854655	0.1695042937979711	0.1931181775127425	-0.01285694453066765	-0.390919810944875	-0.1291852623600284	-0.5161471873067486	1.992712047200451	0.0455465054464225	0.6665228223594718	-0.5251593971791414	1.983561479110064	1.983561479109889	-0.005701311975563061	0.03811995926804375	0.4995874827103763	0.136379473011673	-0.2215245284136403	0.01916817314477114	-0.02661728683691856	-0.2775844395424997	0.09668627946109197	0.03836146881916028	0.2159175702281424	-8.589682597292054	-17.31919227385251	4.829168956137885	-1.606622895779072	-632.8807072026418	-58.93618170839147	-13.40918923938303	0.6444423339757603	0.610712750716713	-0.009563744883421411	-2.333874396193778	0.560330657623696	-0.6812923832636157	1.908795097392423	-2.366165521989194	-2.366165521989147	0.07985554272469005	-0.1181967942262579	-0.7944367147360484	0.5911076384562913	-2.400617607624666e-07	1.048732373869799e-07	1.893999938890213e-06	2.502099061153465e-07	-3.116172794042309e-07	1.805407450209744e-07	-2.579622401146453e-07
0.5700000000000001	-0.3582810715500038	-0.04005634404960534	0.7321897538215868	1.300415782341834	-0.3030003970748146	0.05561335638846225	-0.3631221771982005	0.9507319962862195	0.95073199628643	-0.174069693689687	0.1698789208371362	0.1980734300200592	-0.01146489069054529	-0.384338446307429	-0.1230837300532755	-0.5158983788342656	1.968584922746585	0.05088667854302521	0.6598957163340108	-0.5060314728595654	1.959085469158942	1.959085469158897	-0.005446916489502352	0.03680063209562814	0.4913998114308888	0.1419860435666666	-0.2271214770366047	0.01909728806663482	-0.02651164595029178	-0.2807278157594909	0.09548539858361356	0.03805188507609884	0.2205456996307604	-9.22598242370969	-16.95848483969641	4.64048242717011	-1.317311252080053	-637.3330985793076	-58.65755188906601	-12.1796831535828	0.6699199085160116	0.6093809734026734	0.05947016941981467	-2.48877311522003	0.5141918551953055	-0.6646273379736857	1.918886869798036	-2.525825714949691	-2.525825714930151	-0.002092558402548244	-0.1398869843350091	-0.8403819826626293	0.5384067786800267	-2.081873386075441e-07	1.74665748409507e-07	1.747028265615918e-06	2.370096026705752e-07	-2.772970243331612e-07	2.337907785564743e-07	-2.307516869587178e-07
